<?xml version="1.0" encoding="utf-8"?>
<!-- Svg Vector Icons : http://www.onlinewebfonts.com/icon -->
<!DOCTYPE svg PUBLIC "-//W3C//DTD SVG 1.1//EN" "http://www.w3.org/Graphics/SVG/1.1/DTD/svg11.dtd">
<svg version="1.1" xmlns="http://www.w3.org/2000/svg" xmlns:xlink="http://www.w3.org/1999/xlink" x="0px" y="0px" viewBox="0 0 256 256" enable-background="new 0 0 256 256" xml:space="preserve">
<metadata> Svg Vector Icons : http://www.onlinewebfonts.com/icon </metadata>
<g><g><g><path fill="#000000" d="M55.2,11c-10.7,3.1-19.3,12.8-20.8,23.6c-0.7,5.1-0.7,181.6,0,186.7c1.2,8.3,7.4,17.3,14.9,21.2c6.8,3.6,2.7,3.4,78.8,3.4c61.1,0,69.2-0.1,72.2-0.9c9.5-2.4,17.2-9.8,20.8-20.1c0.8-2.4,0.9-9,1-80.3c0.2-73.5,0.1-77.8-0.8-79.4c-0.8-1.4-41.1-40.7-53.7-52.3l-3.4-3.1l-52.9,0.1C63,10.1,58.2,10.2,55.2,11z M154.6,35.8c0,13.9,0.6,17.8,3.3,23.4c2.3,4.5,7.8,10.2,12.2,12.5c6,3,8.1,3.3,23.8,3.3h14.2v72.4c0,80.4,0.2,75.1-3.6,79.6c-1,1.2-3.1,2.9-4.7,3.7l-2.8,1.5l-67.9,0.2c-59,0.1-68.3,0-70.7-0.7c-3.6-1-7.3-4.3-9.1-8l-1.4-2.8V128V35.1l1.4-2.8c1.7-3.5,5.6-6.9,8.8-7.9c2.1-0.7,10.6-0.8,49.5-0.8l46.9-0.1V35.8z"/><path fill="#000000" d="M88.8,40c-3,1.4-6.8,4.8-8.1,7.3c-1.4,2.7-2,6.4-1.5,8.7c0.4,1.8,0.3,2.2-0.6,2.8c-0.9,0.6-1,1.1-0.7,2.9c0.2,1.2,1,3.7,1.9,5.5c0.9,1.8,1.9,4.2,2.3,5.4c0.4,1.1,1.6,3.1,2.8,4.4c2.7,3,5.8,4.2,10.1,3.9c5.2-0.4,8.8-3.4,10.4-8.8c0.4-1.2,1.3-2.8,2.1-3.5c1.7-1.7,3.2-7.1,2.3-8.6c-0.3-0.5-0.4-3-0.3-5.8c0.3-5.6-0.6-8.4-3.1-9.6c-0.8-0.4-2-1.4-2.8-2.2C100.4,38.6,93.8,37.6,88.8,40z"/><path fill="#000000" d="M77.6,83.5c-2.8,1.4-6.2,3-7.6,3.6c-2.6,1.2-4.5,3.7-5.3,6.7c-0.3,1.1-0.7,4.8-0.9,8.3l-0.4,6.4h30.4h30.4l-0.2-7.2c-0.2-6.4-0.3-7.5-1.6-9.9c-1.5-3-2.2-3.4-17.4-10.4c-0.2-0.1-1.8,4.2-3.5,9.6c-1.7,5.4-3.3,9.8-3.5,9.8c-0.2,0-0.9-1.5-1.5-3.2L95.7,94l1.3-2.6c1.6-3.1,1.6-3.7,0.2-5.1c-2.1-2.1-7-0.9-7,1.7c0,0.6,0.5,2.2,1.2,3.5c1.1,2.3,1.1,2.4,0.2,5.6c-0.5,1.8-1.1,3.4-1.4,3.5c-0.2,0.1-0.8-1.2-1.3-2.9c-3.6-11.6-5.4-16.9-5.7-16.8C83,81,80.5,82.1,77.6,83.5z"/><path fill="#000000" d="M68.8,121.5c-3.3,1-5.6,4.5-5,7.8c0.5,2.5,3.4,5,6.4,5.5c1.3,0.2,28.4,0.3,60.2,0.2c64.5-0.2,60.3,0.1,62.2-3.9c1.1-2.3,1.1-3.7,0-6.1c-1.9-4,2.5-3.7-63.3-3.8C96.9,121.1,69.7,121.2,68.8,121.5z"/><path fill="#000000" d="M67.6,149.6c-1.8,0.8-2.4,1.5-3.2,3.5c-1.1,3-0.5,5.6,1.9,7.7l1.7,1.4h60.4c55.9,0,60.5-0.1,61.9-0.9c1.7-1,3.2-3.6,3.2-5.6c0-1.8-1.6-4.7-3.1-5.8c-1.4-0.9-4.6-1-61-1.1C72.1,148.6,69.7,148.6,67.6,149.6z"/><path fill="#000000" d="M67.6,177c-4.4,2.2-5,8.1-1.2,11.3l1.7,1.4h60.6h60.6l1.9-1.8c3.5-3.2,2.8-8.7-1.4-10.8c-1.8-0.9-5.8-1-61.2-1C75.7,176.2,69.1,176.3,67.6,177z"/><path fill="#000000" d="M66.9,204.8c-4,1.9-4.8,7-1.6,10.6l1.5,1.7l35.2,0.2l35.2,0.1l1.9-1.8c3.7-3.4,2.8-9.1-1.7-11c-1.6-0.7-7.4-0.8-35.3-0.8C71.5,203.8,68.6,203.8,66.9,204.8z"/></g></g></g>
</svg>